<?xml version="1.0" standalone="no"?>
<!DOCTYPE svg PUBLIC "-//W3C//DTD SVG 20010904//EN"
 "http://www.w3.org/TR/2001/REC-SVG-20010904/DTD/svg10.dtd">
<svg version="1.0" xmlns="http://www.w3.org/2000/svg"
 width="1920.000000pt" height="1920.000000pt" viewBox="0 0 1920.000000 1920.000000"
 preserveAspectRatio="xMidYMid meet">

<g transform="translate(0.000000,1920.000000) scale(0.100000,-0.100000)"
fill="#000000" stroke="none">
<path d="M10330 18815 c-409 -51 -778 -145 -1168 -297 l-152 -60 -123 41
c-401 132 -743 189 -1194 198 -535 11 -995 -55 -1550 -222 -680 -205 -1421
-574 -2042 -1019 -63 -44 -117 -81 -122 -81 -11 0 -193 -135 -349 -259 -503
-400 -996 -882 -1420 -1391 -115 -138 -262 -327 -258 -331 2 -2 189 68 416
155 227 87 412 153 412 147 0 -6 -7 -39 -15 -72 -43 -184 -96 -547 -115 -793
-13 -172 -13 -592 0 -741 18 -206 82 -570 99 -570 25 1 29 18 15 75 -128 540
-120 1247 22 1945 26 126 31 166 21 172 -8 5 -9 8 0 8 6 0 23 21 39 48 146
252 540 837 772 1147 209 278 248 321 386 424 477 358 1091 702 1651 926 1139
455 2234 523 3215 199 l135 -44 204 -813 c112 -446 212 -831 222 -854 10 -24
24 -43 31 -44 7 0 -9 -9 -37 -20 -268 -109 -702 -352 -1045 -587 -670 -458
-1424 -1166 -2054 -1930 -65 -78 -121 -140 -125 -138 -10 7 -252 34 -416 47
-451 36 -1046 21 -1445 -37 -472 -68 -1007 -240 -1480 -477 l-105 -53 -65
-130 c-182 -360 -400 -914 -546 -1388 -160 -518 -307 -1228 -404 -1946 -17
-129 -33 -248 -36 -265 -3 -24 -14 -35 -56 -55 -351 -170 -756 -528 -1010
-895 -121 -174 -254 -415 -244 -441 11 -29 27 -11 76 86 224 447 595 852 1027
1121 53 33 124 74 157 91 l61 31 30 -38 c292 -368 665 -756 1020 -1060 126
-108 342 -281 525 -419 85 -65 158 -126 162 -136 8 -21 227 -180 548 -395
l235 -158 6 -216 c39 -1305 377 -2571 935 -3493 l53 -87 -650 -598 c-602 -553
-653 -597 -682 -595 -183 17 -719 266 -1292 600 -157 92 -191 109 -198 96 -5
-9 -7 -17 -5 -18 101 -70 591 -343 823 -459 319 -159 672 -285 695 -247 4 7
13 2 25 -17 24 -38 270 -364 364 -483 244 -309 572 -678 731 -823 67 -61 101
-82 315 -187 771 -379 1536 -640 2370 -805 240 -48 270 -51 392 -35 596 78
1187 238 1671 454 77 34 108 43 121 36 28 -14 279 -48 451 -61 200 -15 743 -6
960 15 958 93 1957 373 2985 837 307 139 826 404 1108 568 94 54 102 58 91 39
-9 -15 81 56 225 175 439 367 866 792 1232 1228 95 113 121 147 103 137 -11
-7 -654 -259 -674 -265 -13 -3 -15 7 -12 72 3 42 -1 142 -7 222 -40 490 -212
1047 -512 1654 l-98 199 66 123 c182 334 440 889 603 1297 283 707 472 1520
539 2325 l11 119 -69 91 c-331 434 -784 893 -1181 1196 -184 141 -494 345
-712 469 -43 24 -78 49 -78 55 0 12 -311 180 -445 240 l-80 36 -1 372 c0 282
-4 410 -17 527 -111 995 -428 1985 -934 2913 -35 66 -63 120 -61 122 2 2 370
256 818 565 l814 563 116 -58 c556 -276 1183 -737 1685 -1240 753 -753 1339
-1671 1720 -2693 30 -79 56 -146 59 -149 3 -3 12 -3 20 0 11 5 3 36 -43 159
-338 899 -793 1662 -1425 2388 -130 149 -468 487 -621 621 -439 384 -932 724
-1357 935 -84 42 -114 61 -107 70 16 19 -171 276 -379 522 -195 230 -505 523
-722 683 -382 280 -894 562 -1441 792 -286 121 -770 232 -1299 298 -218 28
-736 35 -910 14z m-629 -2140 c541 -52 1228 -192 1689 -344 531 -176 1227
-521 1724 -854 49 -33 97 -60 105 -61 9 -1 42 -17 74 -36 69 -41 80 -58 233
-355 413 -802 695 -1674 809 -2504 41 -301 63 -724 50 -964 -7 -138 -7 -138
-34 -148 -35 -14 -114 -65 -376 -245 -559 -384 -987 -718 -1405 -1100 -226
-206 -665 -654 -894 -911 -190 -213 -245 -283 -226 -283 16 0 12 -28 -6 -38
-13 -7 17 -144 230 -1033 135 -563 331 -1382 435 -1819 105 -437 195 -810 201
-828 13 -38 13 -38 -229 -352 -639 -828 -1373 -1544 -2036 -1987 -318 -212
-728 -418 -825 -415 -96 3 -365 25 -527 42 -691 75 -1307 222 -1818 433 -456
189 -1048 518 -1473 819 -95 68 -115 78 -128 67 -18 -15 -8 -29 -113 151 -522
896 -849 2143 -878 3348 -6 261 -6 262 15 262 18 0 742 683 2675 2524 108 103
160 159 165 180 16 58 69 -180 -523 2341 -179 759 -334 1397 -345 1419 l-20
38 92 112 c774 942 1715 1775 2528 2238 224 128 614 315 661 317 9 1 85 -6
170 -14z m6134 -11447 c260 -538 408 -983 481 -1453 17 -105 34 -485 22 -485
-3 0 -21 -26 -39 -57 -114 -199 -475 -752 -647 -989 l-81 -111 -193 -110
c-1260 -718 -2514 -1176 -3688 -1347 -590 -86 -1228 -94 -1680 -20 l-105 17
-325 834 c-179 459 -325 839 -325 845 0 5 42 25 94 44 240 85 585 284 922 529
648 473 1373 1219 1988 2047 89 119 95 126 120 117 32 -10 236 -34 471 -55
239 -21 842 -30 1067 -15 217 14 417 39 421 52 2 5 16 9 30 9 36 0 362 61 532
100 233 53 599 157 770 219 30 11 59 20 63 20 5 1 50 -86 102 -191z"/>
<path d="M18760 12375 c-14 -7 -45 -19 -69 -26 -75 -22 -76 -28 -52 -266 33
-323 45 -703 31 -998 -6 -137 -13 -269 -16 -291 -4 -27 -2 -44 6 -49 8 -5 8
-10 2 -14 -5 -3 -42 -58 -82 -121 -205 -322 -465 -625 -711 -828 -243 -200
-518 -347 -769 -411 -86 -22 -105 -30 -102 -44 4 -19 -1 -19 133 14 219 54
486 195 724 383 266 210 565 555 765 879 29 49 56 90 60 92 9 6 139 -239 213
-400 107 -234 169 -385 249 -610 28 -77 53 -142 56 -145 7 -7 -6 499 -18 680
-36 526 -111 1044 -226 1540 -43 190 -130 518 -156 592 -12 35 -14 36 -38 23z"/>
<path d="M25 8905 c34 -472 110 -979 218 -1455 37 -167 42 -181 49 -145 4 22
30 268 58 546 l51 505 -74 120 c-41 65 -127 209 -191 319 l-117 200 6 -90z"/>
</g>
</svg>
