<?xml version="1.0" standalone="no"?>
<!DOCTYPE svg PUBLIC "-//W3C//DTD SVG 20010904//EN"
 "http://www.w3.org/TR/2001/REC-SVG-20010904/DTD/svg10.dtd">
<svg version="1.0" xmlns="http://www.w3.org/2000/svg"
 width="500.000000pt" height="500.000000pt" viewBox="0 0 500.000000 500.000000"
 preserveAspectRatio="xMidYMid meet">

<g transform="translate(0.000000,500.000000) scale(0.100000,-0.100000)"
fill="#000000" stroke="none">
<path d="M2650 4954 c-41 -13 -112 -31 -157 -40 -71 -14 -82 -19 -87 -40 -8
-29 -22 -31 -36 -4 -10 18 -21 20 -104 20 -51 0 -134 7 -184 16 l-91 15 -108
-46 c-196 -85 -537 -269 -665 -360 -90 -63 -147 -119 -215 -211 -113 -154
-196 -346 -229 -533 -20 -114 -17 -778 4 -786 7 -2 73 -10 147 -16 102 -10
153 -10 216 -1 46 7 87 8 91 4 5 -5 9 -249 10 -543 1 -450 -3 -580 -20 -829
-12 -162 -26 -369 -32 -460 -5 -91 -19 -309 -30 -485 -15 -239 -18 -326 -10
-346 20 -46 157 -101 400 -158 365 -86 769 -131 1182 -131 373 0 565 35 685
124 103 76 98 63 79 230 -9 79 -16 182 -16 228 0 46 -11 218 -25 383 -14 165
-34 405 -45 533 -22 261 -27 679 -9 840 11 107 50 295 100 481 26 99 36 124
53 130 12 5 122 18 246 30 287 29 420 47 434 61 7 7 6 30 -2 78 -7 37 -21 150
-32 252 -39 360 -67 536 -101 643 -55 172 -171 355 -290 461 -53 47 -183 118
-309 170 -36 15 -78 33 -95 41 -16 7 -95 39 -175 70 -79 31 -187 78 -240 105
-134 69 -208 100 -239 99 -14 -1 -60 -12 -101 -25z m30 -174 c-6 -11 -15 -18
-21 -15 -5 4 -8 1 -7 -6 2 -8 -28 -30 -67 -51 -75 -40 -81 -47 -19 -23 l39 15
-35 -30 c-46 -41 -88 -63 -103 -54 -7 4 -9 3 -4 -1 12 -13 -45 -45 -81 -45
-18 0 -47 -7 -63 -16 -22 -11 -34 -12 -43 -5 -7 6 -46 17 -87 25 -82 16 -192
46 -187 51 2 2 30 -3 63 -10 33 -8 87 -14 120 -13 l60 2 -45 12 c-133 37 -226
66 -234 74 -5 5 6 5 26 1 28 -7 34 -5 34 9 0 12 -6 16 -21 13 -15 -4 -17 -2
-6 5 11 8 6 15 -25 31 -21 12 -30 19 -19 17 132 -32 202 -40 340 -40 111 1
164 5 205 18 30 9 84 25 120 36 36 10 66 19 68 19 1 1 -2 -8 -8 -19z m-461
-236 c10 -9 -75 -3 -89 6 -10 7 1 8 35 4 28 -4 52 -8 54 -10z m629 -453 c31 2
67 -2 79 -9 12 -7 38 -12 57 -12 41 0 44 -7 16 -52 -24 -39 -26 -85 -6 -133 8
-19 11 -35 6 -35 -5 0 -13 -12 -16 -27 -19 -80 -76 -122 -162 -123 -24 0 -52
-5 -63 -11 -16 -8 -25 -7 -37 4 -9 8 -32 18 -50 22 -71 15 -131 99 -117 164 4
18 2 32 -5 36 -8 5 -4 16 13 34 38 40 49 69 45 114 l-3 42 40 -3 c22 -2 51 1
65 6 18 7 33 5 53 -5 17 -9 51 -13 85 -12z m-1169 -125 c-15 -13 -352 -186
-363 -186 -22 0 -37 26 -30 53 3 14 21 43 40 64 20 22 31 29 24 16 -5 -12 -10
-29 -10 -39 0 -27 59 -13 205 49 71 31 132 54 134 51 2 -2 2 -6 0 -8z m50
-516 c17 0 18 -9 13 -97 l-5 -98 40 49 c34 42 44 48 81 51 23 2 44 0 47 -4 2
-5 -16 -32 -41 -61 -67 -79 -68 -82 -34 -126 16 -22 43 -58 59 -80 l30 -41
-42 -6 c-45 -7 -42 -9 -109 74 l-27 34 0 -57 -1 -58 -35 0 -35 0 0 208 c0 115
3 212 7 216 4 3 13 4 21 1 7 -3 22 -5 31 -5z m551 -50 c0 -36 3 -40 25 -40 23
0 25 -4 25 -45 0 -41 -2 -45 -24 -45 -23 0 -24 -4 -28 -67 -3 -68 8 -99 33
-91 12 4 59 -49 59 -66 0 -3 -17 -10 -38 -17 -32 -9 -44 -8 -69 4 -45 24 -63
71 -63 166 0 65 -3 81 -15 81 -11 0 -15 11 -15 36 0 27 5 37 20 41 15 4 20 14
20 38 0 27 5 34 23 38 46 9 47 8 47 -33z m-921 -28 c37 -37 47 -102 26 -166
l-16 -47 41 -62 41 -62 -27 -9 c-24 -8 -31 -5 -51 19 -13 15 -27 40 -30 56 -3
16 -11 29 -17 29 -9 0 -11 -18 -8 -60 4 -49 2 -60 -11 -60 -16 0 -27 29 -27
72 0 15 -9 64 -20 110 -11 46 -20 109 -20 140 0 54 1 57 28 61 56 8 64 6 91
-21z m607 -18 c20 -5 21 -10 16 -99 -5 -103 9 -145 48 -145 36 0 50 38 50 135
0 49 4 96 9 103 12 20 66 11 65 -10 0 -10 -1 -82 -2 -161 l-2 -142 -82 0 c-96
0 -120 12 -143 68 -19 47 -21 227 -3 245 14 14 15 14 44 6z m595 -21 c39 -33
59 -79 59 -134 l0 -42 -100 6 c-88 5 -100 4 -100 -10 0 -46 66 -69 102 -36 18
16 21 16 54 -2 18 -10 34 -22 34 -26 0 -16 -62 -59 -95 -65 -46 -8 -77 0 -116
33 -113 96 -54 303 88 303 31 0 50 -7 74 -27z m-921 -68 c0 -45 3 -117 7 -159
l6 -77 -44 1 c-24 0 -58 -2 -75 -6 -44 -8 -89 32 -109 99 -20 66 -19 103 4
153 27 60 50 72 137 72 l74 0 0 -83z m1201 58 c50 -30 63 -68 61 -173 -3 -121
-9 -153 -29 -146 -8 3 -24 6 -36 6 -21 0 -22 3 -19 108 3 91 1 112 -13 125
-18 19 -42 21 -64 8 -17 -11 -30 -79 -31 -163 l0 -68 -41 0 -42 0 7 146 c4 80
10 152 12 159 8 20 160 18 195 -2z m-492 -341 c89 -1 151 -6 145 -11 -5 -5
-92 -14 -194 -20 -170 -11 -277 -21 -605 -55 l-120 -13 -37 41 c-20 23 -37 44
-38 48 0 12 335 16 849 10z"/>
<path d="M2416 4598 c3 -5 10 -6 15 -3 13 9 11 12 -6 12 -8 0 -12 -4 -9 -9z"/>
<path d="M2695 4070 c-13 -24 -20 -29 -39 -24 -18 4 -25 1 -29 -15 -4 -16 1
-21 22 -23 22 -2 26 -8 24 -30 -1 -17 3 -28 11 -28 9 0 12 -9 8 -26 -4 -24 -7
-26 -61 -22 l-56 3 0 -52 c1 -63 25 -93 94 -120 64 -25 195 -24 237 1 52 31
84 106 50 119 -7 3 -33 8 -58 12 l-44 7 8 71 c5 39 13 88 17 108 7 31 6 36 -8
32 -11 -3 -16 -17 -17 -48 -1 -24 -4 -55 -8 -69 -9 -35 -29 -34 -22 2 16 78
18 102 8 102 -12 0 -32 -123 -21 -131 5 -3 8 -17 7 -32 -2 -19 -8 -27 -21 -27
-10 0 -15 5 -12 10 3 6 1 10 -4 10 -6 0 -11 5 -11 10 0 6 7 10 15 10 9 0 12 6
9 15 -9 23 -47 -1 -41 -26 4 -15 0 -19 -24 -19 -34 0 -37 10 -10 29 15 11 18
22 14 47 -5 31 -4 32 28 31 28 -2 35 2 37 21 2 12 0 22 -5 21 -4 -1 -18 -1
-31 0 -21 1 -23 5 -17 31 6 26 4 30 -14 30 -13 0 -26 -11 -36 -30z m94 -230
c12 -6 17 -18 15 -36 -4 -42 -42 -57 -79 -31 -17 13 -15 14 15 21 40 8 52 0
19 -13 -13 -5 -17 -10 -9 -10 8 0 23 6 33 13 18 14 17 15 -3 21 -13 4 -19 12
-16 21 3 9 1 12 -4 9 -6 -3 -10 -13 -10 -22 0 -13 -2 -14 -17 -2 -11 10 -14
10 -9 2 4 -7 2 -13 -3 -13 -17 0 -13 21 7 36 21 16 37 17 61 4z"/>
<path d="M2795 4070 c3 -5 8 -10 11 -10 2 0 4 5 4 10 0 6 -5 10 -11 10 -5 0
-7 -4 -4 -10z"/>
<path d="M2892 4007 c-6 -40 -8 -75 -4 -79 4 -3 24 -10 45 -13 34 -7 37 -6 36
16 -1 17 -3 19 -6 7 -5 -18 -23 -25 -23 -9 0 32 22 116 33 123 8 5 5 8 -9 8
-17 0 -22 -10 -32 -61 -6 -34 -14 -64 -17 -67 -14 -14 -15 11 -2 71 10 50 11
67 2 71 -8 3 -16 -21 -23 -67z"/>
<path d="M2975 4019 c-9 -17 -15 -34 -13 -39 2 -5 11 9 20 30 20 47 15 53 -7
9z"/>
<path d="M1284 3283 c3 -21 6 -46 6 -55 0 -23 36 -24 44 -2 18 47 0 94 -37 94
-17 0 -19 -5 -13 -37z"/>
<path d="M2443 3266 l-27 -24 48 -3 c62 -5 78 5 47 31 -30 25 -34 25 -68 -4z"/>
<path d="M1486 3248 c-46 -65 11 -181 65 -132 40 36 16 154 -31 154 -10 0 -26
-10 -34 -22z"/>
</g>
</svg>
