<?xml version="1.0" standalone="no"?>
<!DOCTYPE svg PUBLIC "-//W3C//DTD SVG 20010904//EN"
 "http://www.w3.org/TR/2001/REC-SVG-20010904/DTD/svg10.dtd">
<svg version="1.0" xmlns="http://www.w3.org/2000/svg"
 width="500.000000pt" height="500.000000pt" viewBox="0 0 500.000000 500.000000"
 preserveAspectRatio="xMidYMid meet">

<g transform="translate(0.000000,500.000000) scale(0.100000,-0.100000)"
fill="#000000" stroke="none">
<path d="M3522 4603 c-9 -4 -10 -8 -2 -18 9 -10 18 -11 42 -3 22 8 26 13 16
19 -14 10 -36 10 -56 2z"/>
<path d="M3479 4573 c-13 -16 -12 -17 4 -4 9 7 17 15 17 17 0 8 -8 3 -21 -13z"/>
<path d="M1301 4457 c-13 -7 -23 -16 -21 -22 18 -64 29 -75 60 -55 11 7 11 10
2 10 -10 0 -10 5 -2 20 8 15 8 20 -1 20 -6 0 -9 7 -6 15 9 21 -5 26 -32 12z"/>
<path d="M4030 4294 c0 -14 8 -24 23 -29 13 -4 17 -8 10 -12 -20 -8 -15 -23 7
-23 28 0 25 14 -10 52 -27 30 -29 31 -30 12z"/>
<path d="M2978 3893 c7 -3 16 -2 19 1 4 3 -2 6 -13 5 -11 0 -14 -3 -6 -6z"/>
<path d="M4226 3878 c17 -57 34 -88 48 -88 20 0 20 7 1 26 -8 8 -12 21 -9 28
3 7 -2 16 -10 19 -9 4 -13 13 -10 22 4 10 0 15 -11 15 -12 0 -15 -5 -9 -22z"/>
<path d="M3020 3879 c0 -5 5 -7 10 -4 6 3 10 8 10 11 0 2 -4 4 -10 4 -5 0 -10
-5 -10 -11z"/>
<path d="M4180 3886 c0 -2 7 -23 15 -47 l16 -44 -40 39 c-31 31 -42 36 -46 24
-8 -19 30 -115 39 -100 4 6 2 20 -4 31 -20 38 -9 46 20 14 31 -35 50 -42 50
-20 0 24 -32 107 -41 107 -5 0 -9 -2 -9 -4z"/>
<path d="M1410 3871 c0 -6 -7 -11 -15 -11 -18 0 -20 -16 -2 -23 8 -3 7 -9 -6
-19 -17 -13 -17 -14 4 -15 13 -1 29 2 35 8 8 7 14 7 19 -1 3 -5 22 -10 41 -10
28 0 36 -5 45 -26 5 -15 21 -41 36 -58 16 -19 23 -23 18 -11 -5 11 -10 41 -13
68 -4 44 -6 47 -32 47 -16 0 -41 11 -57 24 -33 27 -73 42 -73 27z"/>
<path d="M2940 3868 c0 -4 16 -8 36 -8 19 0 33 4 29 9 -7 12 -65 11 -65 -1z"/>
<path d="M3201 3834 c0 -11 3 -14 6 -6 3 7 2 16 -1 19 -3 4 -6 -2 -5 -13z"/>
<path d="M2925 3820 c3 -5 11 -10 16 -10 6 0 7 5 4 10 -3 6 -11 10 -16 10 -6
0 -7 -4 -4 -10z"/>
<path d="M2880 3809 c0 -20 16 -43 23 -32 3 4 -1 17 -9 28 -10 13 -14 15 -14
4z"/>
<path d="M4257 3733 c-9 -2 -15 -8 -12 -13 3 -5 12 -7 19 -4 10 4 20 -11 32
-48 11 -32 20 -46 22 -35 2 10 -1 31 -7 48 -5 16 -8 36 -5 44 6 15 -11 18 -49
8z"/>
<path d="M2800 3685 c13 -14 26 -25 28 -25 3 0 -5 11 -18 25 -13 14 -26 25
-28 25 -3 0 5 -11 18 -25z"/>
<path d="M3130 3655 c-19 -14 -30 -25 -25 -25 6 0 24 11 40 25 39 31 30 31
-15 0z"/>
<path d="M2988 3603 c7 -3 16 -2 19 1 4 3 -2 6 -13 5 -11 0 -14 -3 -6 -6z"/>
<path d="M4225 3509 c-11 -16 -1 -19 13 -3 7 8 8 14 3 14 -5 0 -13 -5 -16 -11z"/>
<path d="M2786 3241 c-4 -6 -1 -11 6 -11 59 0 196 -24 219 -37 37 -22 53 -61
40 -95 -16 -43 -48 -58 -121 -58 -110 0 -110 0 -110 86 0 67 -2 74 -20 74 -14
0 -20 -7 -20 -22 0 -13 -3 -53 -6 -89 l-7 -66 101 -12 c102 -12 135 -9 185 16
34 17 61 74 52 113 -7 33 -49 74 -90 90 -44 17 -220 26 -229 11z"/>
<path d="M1766 3215 c-9 -13 -16 -32 -15 -42 0 -14 2 -15 6 -3 3 8 16 24 30
36 20 17 22 22 10 27 -10 4 -22 -3 -31 -18z"/>
<path d="M1566 3108 c3 -5 10 -6 15 -3 13 9 11 12 -6 12 -8 0 -12 -4 -9 -9z"/>
<path d="M1741 3113 c0 -5 4 -17 9 -28 l9 -20 0 20 c1 17 3 18 12 5 9 -12 10
-12 5 3 -3 10 -6 21 -6 23 0 2 -7 4 -15 4 -8 0 -15 -3 -14 -7z"/>
<path d="M4510 3108 c-14 -5 -126 -45 -250 -88 -124 -43 -281 -99 -350 -125
-69 -26 -151 -56 -182 -67 -61 -21 -67 -28 -43 -51 11 -12 23 -13 52 -6 45 10
844 277 851 284 3 2 -1 18 -8 35 -13 32 -29 36 -70 18z"/>
<path d="M399 3003 c-6 -15 -6 -30 -1 -35 5 -5 81 -31 168 -58 88 -27 204 -65
259 -85 157 -57 430 -145 452 -145 16 0 18 6 15 35 -4 31 -8 36 -46 45 -39 9
-516 164 -729 237 -55 18 -101 33 -103 33 -3 0 -9 -12 -15 -27z"/>
<path d="M1553 2999 c-18 -5 -33 -14 -33 -19 0 -16 37 -12 54 6 14 13 21 26
14 23 -2 0 -18 -5 -35 -10z"/>
<path d="M2567 2869 c-15 -27 -19 -30 -34 -18 -15 12 -16 12 -10 -4 4 -10 7
-34 7 -53 0 -19 5 -34 10 -34 6 0 10 12 10 26 0 14 12 45 26 70 14 24 22 44
17 44 -4 0 -16 -14 -26 -31z"/>
<path d="M1310 531 c0 -5 12 -11 27 -13 42 -5 43 -36 1 -41 l-33 -4 33 -1 c17
-1 32 -6 32 -12 0 -5 -13 -7 -30 -3 -23 4 -30 2 -30 -10 0 -13 27 -27 58 -27
8 0 12 19 12 60 l0 60 -35 0 c-19 0 -35 -4 -35 -9z"/>
</g>
</svg>
